<?xml version="1.0" standalone="no"?>
<!DOCTYPE svg PUBLIC "-//W3C//DTD SVG 20010904//EN"
 "http://www.w3.org/TR/2001/REC-SVG-20010904/DTD/svg10.dtd">
<svg version="1.0" xmlns="http://www.w3.org/2000/svg"
 width="160.000000pt" height="160.000000pt" viewBox="0 0 160.000000 160.000000"
 preserveAspectRatio="xMidYMid meet">

<g transform="translate(0.000000,160.000000) scale(0.100000,-0.100000)"
fill="#000000" stroke="none">
<path d="M1527 1509 c9 -11 9 -34 2 -89 -14 -118 -33 -172 -56 -163 -13 5 -12
1 2 -27 15 -28 15 -35 4 -44 -8 -6 -22 -27 -32 -46 -51 -102 -234 -297 -314
-336 -27 -13 -33 -19 -20 -22 9 -2 15 -8 12 -13 -4 -5 -32 7 -63 27 -31 20
-50 29 -42 19 13 -16 13 -18 0 -13 -8 3 -26 -3 -39 -13 -18 -14 -28 -16 -42
-8 -22 11 -28 9 -84 -37 -38 -31 -262 -164 -274 -164 -4 0 -14 12 -24 25 -17
23 -17 27 -1 57 25 50 44 67 96 90 54 23 156 125 184 183 17 36 17 37 -8 62
l-26 25 -75 -51 c-42 -28 -81 -51 -87 -51 -17 0 -11 30 21 96 17 36 29 69 27
74 -2 5 -32 -13 -68 -40 -88 -67 -142 -84 -243 -77 l-80 5 -51 -55 c-28 -31
-75 -87 -104 -125 -58 -77 -90 -133 -48 -83 14 17 25 33 26 38 0 4 14 7 31 7
23 0 32 -5 36 -20 5 -18 7 -19 17 -5 10 14 16 14 52 1 23 -8 59 -23 80 -34 28
-14 43 -17 55 -9 9 5 35 7 61 3 40 -6 45 -10 41 -27 -4 -13 -11 -18 -21 -14
-18 7 -72 -41 -72 -63 0 -21 44 -77 82 -103 19 -13 27 -16 20 -7 -11 14 -8 19
17 37 29 21 30 21 40 3 8 -15 5 -24 -14 -42 -14 -13 -25 -29 -25 -37 0 -7 -9
-18 -21 -25 -11 -7 -43 -51 -71 -98 -27 -47 -62 -101 -76 -120 l-27 -35 30 22
c17 12 84 70 150 128 66 57 123 105 128 105 4 0 7 -6 7 -13 0 -7 -3 -18 -7
-23 -5 -6 11 10 34 35 41 43 47 68 14 57 -12 -5 -11 -2 3 9 27 21 42 5 45 -49
2 -46 3 -44 -78 -105 -22 -16 -23 -21 -13 -52 7 -19 13 -55 14 -81 2 -27 6
-48 11 -48 4 0 7 -15 7 -32 0 -62 11 -63 91 -10 41 27 99 71 129 98 31 27 68
59 83 71 26 20 27 25 21 76 -4 30 -3 76 0 100 8 53 66 146 105 170 14 9 40 30
57 46 18 16 34 28 37 25 6 -7 138 136 197 214 70 93 158 272 175 357 17 82 19
188 5 215 -6 11 -20 25 -33 31 -19 11 -20 10 -10 -2z m-697 -862 c0 -7 -7 -21
-15 -31 -11 -15 -18 -17 -27 -8 -8 8 -7 17 6 37 16 25 36 26 36 2z"/>
<path d="M1205 1480 c-3 -5 -1 -10 4 -10 6 0 11 5 11 10 0 6 -2 10 -4 10 -3 0
-8 -4 -11 -10z"/>
<path d="M1263 1453 c4 -6 26 -26 49 -45 23 -18 39 -28 35 -21 -4 6 -26 26
-49 45 -23 18 -39 28 -35 21z"/>
<path d="M1047 1371 c-110 -44 -180 -129 -182 -220 -1 -44 -4 -56 -16 -55 -11
1 -14 -6 -11 -22 4 -24 -11 -33 -23 -14 -3 5 -16 15 -28 22 -19 10 -19 7 7
-28 40 -54 86 -102 121 -127 l30 -22 -20 27 c-11 14 -34 44 -52 65 l-32 40
117 0 c138 -1 173 12 241 89 45 52 50 70 22 79 -13 4 -17 12 -13 30 5 28 12
31 30 13 38 -38 22 60 -17 104 -36 40 -103 47 -174 19z m23 -34 c0 -2 -22 -18
-50 -36 -27 -18 -58 -44 -70 -58 -11 -14 -20 -21 -20 -15 0 21 55 75 95 93 43
20 45 21 45 16z"/>
<path d="M720 1129 c0 -5 5 -7 10 -4 6 3 10 8 10 11 0 2 -4 4 -10 4 -5 0 -10
-5 -10 -11z"/>
<path d="M50 660 c-6 -11 -8 -20 -6 -20 3 0 10 9 16 20 6 11 8 20 6 20 -3 0
-10 -9 -16 -20z"/>
<path d="M107 225 c-4 -8 -2 -17 3 -20 13 -8 40 6 40 21 0 19 -36 18 -43 -1z"/>
<path d="M321 134 c0 -11 3 -14 6 -6 3 7 2 16 -1 19 -3 4 -6 -2 -5 -13z"/>
<path d="M96 124 c-11 -28 -6 -38 9 -18 8 10 15 22 15 27 0 13 -18 7 -24 -9z"/>
<path d="M168 113 c7 -3 16 -2 19 1 4 3 -2 6 -13 5 -11 0 -14 -3 -6 -6z"/>
<path d="M280 110 c-8 -5 -10 -10 -5 -10 6 0 17 5 25 10 8 5 11 10 5 10 -5 0
-17 -5 -25 -10z"/>
<path d="M230 100 c20 -13 33 -13 25 0 -3 6 -14 10 -23 10 -15 0 -15 -2 -2
-10z"/>
<path d="M86 54 c-9 -23 -2 -28 13 -10 7 8 8 17 3 20 -6 3 -13 -1 -16 -10z"/>
</g>
</svg>
