<?xml version="1.0" standalone="yes"?>
<svg width="160" height="160">
<path style="fill:#000000; stroke:none;" d="M0 0L0 160L160 160L160 0L0 0z"/>
<path style="fill:#7a91ac; stroke:none;" d="M124 10L124 11L153 9L153 7L124 10z"/>
<path style="fill:#82b6e6; stroke:none;" d="M123 12L131 17C133.825 11.852 137.397 11.0507 143 11L140 21L151 12L150 30L151 30L153 9C143.696 7.8241 131.366 6.89015 123 12z"/>
<path style="fill:#185793; stroke:none;" d="M153 8C157.133 17.7543 146.943 34.3085 153 41C154.055 32.7248 162.608 13.2984 153 8z"/>
<path style="fill:#356fa6; stroke:none;" d="M153 9L151 38C152.246 29.5219 158.863 16.7391 153 9z"/>
<path style="fill:#7b7473; stroke:none;" d="M119 12L119 13L124 10L119 12z"/>
<path style="fill:#e5e3e3; stroke:none;" d="M117 11L117 13L119 13L119 11L117 11z"/>
<path style="fill:#63a0d6; stroke:none;" d="M143 11C141.037 11.0056 138.95 10.8563 137.011 11.2284C126.01 13.3397 136.936 28.0398 142.356 16.0093C143.152 14.2446 143.065 12.8748 143 11z"/>
<path style="fill:#002c60; stroke:none;" d="M157 11C156.999 18.1262 156.839 26.0092 154.91 32.9105C153.802 36.8778 151.043 41.0102 155 44C156.944 34.5809 163.047 19.8521 157 11z"/>
<path style="fill:#8b8685; stroke:none;" d="M116 12C104.83 18.5257 94.0089 24.5973 84 32.9205C79.9747 36.2679 74.9169 39.4205 75 45L72 48L82.0046 38.0502L105 20.6921L116 12z"/>
<path style="fill:#8ea3ad; stroke:none;" d="M123 12L126 15L126 16L119 23L126 31L134 22L141 28L129 15L123 12z"/>
<path style="fill:#94caf2; stroke:none;" d="M137 22L137 23L147 18L148 35L149 35L151 12L137 22z"/>
<path style="fill:#b8c6cc; stroke:none;" d="M110 17L110 18L119 15L119 16L112 21C118.883 21.8479 120.441 19.4878 126 16C120.919 11.2401 115.39 14.0635 110 17z"/>
<path style="fill:#d3d7d9; stroke:none;" d="M76 46L87 39C95.4156 26.6785 106.8 23.2465 119 16C107.308 13.95 92.1355 28.5959 84 35.4383C80.3894 38.4749 76.8026 41.2091 76 46z"/>
<path style="fill:#58758b; stroke:none;" d="M128 16L134 21L128 16z"/>
<path style="fill:#ccfeff; stroke:none;" d="M125 17L125 19L127 19L127 17L125 17z"/>
<path style="fill:#a9e5fc; stroke:none;" d="M139 25L148 24L147 34L148 34L147 18L139 25z"/>
<path style="fill:#aa2020; stroke:none;" d="M108 21L108 22L116 22L108 21z"/>
<path style="fill:#bc3c42; stroke:none;" d="M105.667 22.3333L106.333 22.6667L105.667 22.3333z"/>
<path style="fill:#f7040a; stroke:none;" d="M95 30C104.506 26.4033 109.441 22.6655 120 24C113.06 18.7422 99.283 22.9414 95 30z"/>
<path style="fill:#b5cace; stroke:none;" d="M133 22C129.052 26.6377 126.294 29.6808 126 36L127 36C128.878 31.5667 136.057 26.5607 133 22z"/>
<path style="fill:#bb0918; stroke:none;" d="M108 23L108 24L119 29C120.288 22.6841 112.323 23.0033 108 23z"/>
<path style="fill:#ff5453; stroke:none;" d="M118 24L120 28L124 27L118 24z"/>
<path style="fill:#010304; stroke:none;" d="M100 27L100 28L117 27L117 29C107.236 32.9264 100.678 40.2143 94 48C96.998 49.4428 99.6312 50.0763 103 49.956C125.591 49.1494 123.605 14.6269 100 27z"/>
<path style="fill:#e3eae6; stroke:none;" d="M135 24L119.895 46.9961L98 65L98 66L97 70C102.181 75.0727 106.751 67.5679 111.09 64.3256C123.113 55.3403 133.994 45.0586 145 35L144 31L147 33L148 24L141 27L143 30L135 24z"/>
<path style="fill:#232f38; stroke:none;" d="M107 25L107 26C108.26 34.6536 92.0844 35.3211 93 45L94 45C99.2717 38.3548 107.637 30.2482 116 28L107 25z"/>
<path style="fill:#6e7b83; stroke:none;" d="M104 26L93 38L109 27L104 26z"/>
<path style="fill:#8798a2; stroke:none;" d="M94 36L105 28C99.8658 26.6573 95.9669 31.7942 94 36z"/>
<path style="fill:#4a555e; stroke:none;" d="M92 37L92 42L93 42L109 27L92 37z"/>
<path style="fill:#0b161d; stroke:none;" d="M116 27C107.899 30.7324 98.3152 37.0297 94 45L93 45L92 37L91 37C91.0575 53.2817 99.9079 40.8316 106.59 35.7292C109.48 33.5229 116.103 30.9357 116 27z"/>
<path style="fill:#ff1b17; stroke:none;" d="M125 34L124 27C120.422 29.5791 121.002 32.3945 125 34z"/>
<path style="fill:#bdbb71; stroke:none;" d="M141 27L143 30L141 27z"/>
<path style="fill:#3b3d42; stroke:none;" d="M94 34L100 28L94 34z"/>
<path style="fill:#d74047; stroke:none;" d="M120 28L118 42L122 40L120 28z"/>
<path style="fill:#ff3a3c; stroke:none;" d="M94 29C88.6071 35.315 86.8604 43.3404 94 49C90.4987 40.4796 91.2128 37.9523 96 30L94 29z"/>
<path style="fill:#49544f; stroke:none;" d="M138 30L139 31L138 30z"/>
<path style="fill:#b45e64; stroke:none;" d="M125 31L125 37L126 37L125 31z"/>
<path style="fill:#acab8f; stroke:none;" d="M144 31L146 34L144 31z"/>
<path style="fill:#170000; stroke:none;" d="M93.3333 33.6667L93.6667 34.3333L93.3333 33.6667z"/>
<path style="fill:#ff7c79; stroke:none;" d="M121 33C121.127 36.9025 121.599 38.9147 125 41C124.952 37.0143 124.94 34.5838 121 33z"/>
<path style="fill:#848c88; stroke:none;" d="M146 33C147.388 39.7229 143.099 43.6345 139.515 49C130.314 62.7763 117.356 70.054 107 82L110 83C120.301 71.6805 133.912 64.4452 142.655 51C146.086 45.7244 151.072 38.4193 146 33z"/>
<path style="fill:#cbd1c7; stroke:none;" d="M145 34L100 73C104.533 77.0472 109.484 69.6202 113.17 66.5864C121.949 59.3599 132.127 53.2132 139.285 44.2708C141.77 41.1658 145.564 38.2036 145 34z"/>
<path style="fill:#591110; stroke:none;" d="M89 35L87 40L88 40L89 35z"/>
<path style="fill:#150607; stroke:none;" d="M92.3333 35.6667L92.6667 36.3333L92.3333 35.6667z"/>
<path style="fill:#a2aaa5; stroke:none;" d="M146 35C134.074 51.0461 117.797 61.8556 103 75L106 81C120.375 75.834 131.333 62.2507 139.515 50C142.257 45.8958 148.506 40.0682 146 35z"/>
<path style="fill:#701f24; stroke:none;" d="M119.333 36.6667L119.667 37.3333L119.333 36.6667z"/>
<path style="fill:#3d4648; stroke:none;" d="M149 37C149.24 57.1371 125.586 74.9556 114 89C125.863 89 136.436 68.4188 142 61C144.696 57.4048 148.265 48.3163 151 49C151.869 44.3005 152.267 40.7876 149 37z"/>
<path style="fill:#b0bfc9; stroke:none;" d="M85 38L74 46L74 50L78 50C81.2351 46.4464 88.1017 43.4545 85 38z"/>
<path style="fill:#cd1e24; stroke:none;" d="M88 39C87.5504 42.5605 86.3536 46.5736 88.1798 49.9414C90.9482 55.0469 95.8537 54.2525 97 49C91.3364 47.3593 90.4159 43.8591 88 39z"/>
<path style="fill:#9d1616; stroke:none;" d="M90 39L90 43L91 43L90 39z"/>
<path style="fill:#a37074; stroke:none;" d="M86 40L86 47L87 47L88 40L86 40z"/>
<path style="fill:#ff1217; stroke:none;" d="M97 50L97 51L105 52L104 55C113.171 54.8046 122.077 49.5329 124 40L97 50z"/>
<path style="fill:#b9b3b2; stroke:none;" d="M147 40L147 42L149 40L147 40z"/>
<path style="fill:#6c7371; stroke:none;" d="M148 41L123.385 71.7955L110 84L111 84C117.115 79.1157 125.157 76.3021 131.331 71.0316C138.967 64.5133 146.491 50.2706 150 41L148 41z"/>
<path style="fill:#1b2830; stroke:none;" d="M152 42L151 47L154 46L152 42z"/>
<path style="fill:#dcd2ce; stroke:none;" d="M73 43L73 45L75 45L73 43z"/>
<path style="fill:#869ba8; stroke:none;" d="M78 50L75 49L82 54C85.2146 50.4783 86.7645 48.9456 86 44L78 50z"/>
<path style="fill:#443433; stroke:none;" d="M72.3333 45.6667L72.6667 46.3333L72.3333 45.6667z"/>
<path style="fill:#7392aa; stroke:none;" d="M71 46L69 53L70 53L71 46z"/>
<path style="fill:#6c7b85; stroke:none;" d="M151 47L151 49L153 47L151 47z"/>
<path style="fill:#d1f3ff; stroke:none;" d="M68 57L69 57L75 52L74 48C69.8039 49.3747 68.8564 52.9023 68 57z"/>
<path style="fill:#20282c; stroke:none;" d="M149 48C143.938 58.826 134.776 72.3214 126.155 80.5602C123.606 82.9963 119.826 87.3052 116.015 87.4738C112.031 87.65 107.747 81.5997 104 80C107.617 85.1355 112.512 91.9778 119 93L118 90L121 91C132.786 77.3745 145.493 64.7933 153 48L149 48z"/>
<path style="fill:#6b2229; stroke:none;" d="M68 49L68 54L69 54L68 49z"/>
<path style="fill:#5f7d8f; stroke:none;" d="M87 49L82 54L82 55C85.987 59.1429 88.9488 56.6534 94 56L94 55L87 49z"/>
<path style="fill:#a20b06; stroke:none;" d="M67 50C60.8482 54.5595 54.8236 60.2994 47 61.6713C40.7819 62.7616 30.4555 58.7948 27 65L59 59C51.9749 67.8698 45.1822 79.1285 42 90C44.3996 90.8328 47.0893 92.2639 49.3117 90.2392C52.305 87.5122 52.6827 81.6433 54.0656 78C57.0483 70.1418 61.5432 60.4936 68 55L67 50z"/>
<path style="fill:#97caf1; stroke:none;" d="M69 57L67 55L65 63L66 63L77 54L76 51L69 57z"/>
<path style="fill:#c20300; stroke:none;" d="M93 54L93 55L107 56L107 55L104 55L105 52L93 54z"/>
<path style="fill:#d0f7ff; stroke:none;" d="M82 52L82 54L84 54L84 52L82 52z"/>
<path style="fill:#70a8d6; stroke:none;" d="M75 53L65 61L64 61L64 67L65 67L77 55L80 57L75 53z"/>
<path style="fill:#3f5d70; stroke:none;" d="M79 53L95 71C92.7233 64.3028 85.2936 56.1864 79 53z"/>
<path style="fill:#23152e; stroke:none;" d="M66 55C58.8932 66.57 53.0555 77.6716 50 91L54 91L61.6096 67L66 55z"/>
<path style="fill:#3581ba; stroke:none;" d="M77 55L65 67L64 67L64 63L63 63L57 90L58 90L71 82.0718L88 67C86.7367 60.7389 82.5753 57.5519 77 55z"/>
<path style="fill:#681314; stroke:none;" d="M94 55L94 56L98 56L94 55z"/>
<path style="fill:#897477; stroke:none;" d="M107.667 55.3333L108.333 55.6667L107.667 55.3333z"/>
<path style="fill:#859faa; stroke:none;" d="M86 58C89.6023 65.4059 94.1722 61.8884 97 56L86 58z"/>
<path style="fill:#506671; stroke:none;" d="M97 56L97 57L106 57L97 56z"/>
<path style="fill:#a3b8bf; stroke:none;" d="M91 63C93.0054 67.0644 95.4568 68.8376 100 68L98 66L98 65L108 56C100.222 57.444 97.1624 57.9962 91 63z"/>
<path style="fill:#cd0401; stroke:none;" d="M41 87L59 59C50.7971 62.0422 40.4666 78.2459 41 87z"/>
<path style="fill:#fc0200; stroke:none;" d="M23 79C26.9139 80.0999 35.9782 83.5833 39.8156 82.2678C45.766 80.2278 50.0963 68.3513 52 63C36.9049 64.1913 25.736 60.7463 23 79z"/>
<path style="fill:#e11814; stroke:none;" d="M26 65C16.1853 74.8418 4.94024 87.3485 1 101L2 101C6.84374 93.3307 11.243 85.1466 17 78C18.4283 76.227 23.3489 68.1168 24 73L25 73L26 65z"/>
<path style="fill:#6096c4; stroke:none;" d="M88 65C82.8268 71.8254 77.1239 77.2611 70 82.0718C61.9976 87.4757 55.0223 87.3866 54 99L55 99C58.8174 89.2292 74.0245 82.8484 81.9144 76.0039C85.2327 73.1252 91.0199 69.5862 88 65z"/>
<path style="fill:#395373; stroke:none;" d="M61 66C59.7117 75.9758 56.9213 87.3428 50 95L50 96L54 98C56.2834 88.3599 65.1937 75.9978 61 66z"/>
<path style="fill:#8db1d0; stroke:none;" d="M90 67C83.9537 75.1203 74.694 82.5473 66 87.5579C62.2803 89.7016 55.5571 92.6804 55.5571 97.8148C55.5571 104.11 64.1397 99.8848 66.7145 98.2037C77.6474 91.0657 87.8184 82.7807 99 76L99 75L81 83C84.7053 79.1173 91.5446 72.8191 90 67z"/>
<path style="fill:#9dccef; stroke:none;" d="M91 68L81 83L98 75L91 68z"/>
<path style="fill:#bda95e; stroke:none;" d="M94 68L95 72L96 72L100 68L94 68z"/>
<path style="fill:#f44900; stroke:none;" d="M23 70L15 81L20 81L19 88L20 88C22.3491 80.184 33.4809 87.2818 39 88L39 83C35.2094 81.0271 25.1663 77.6726 22 81L21 81L23 70z"/>
<path style="fill:#f8c621; stroke:none;" d="M96 70C97.3422 73.9042 99.0013 75.8507 103 77L96 70z"/>
<path style="fill:#575d5c; stroke:none;" d="M127 72C124.456 75.3235 112.207 81.333 112.207 84.963C112.207 88.7416 117.546 85.921 118.871 84.9367C122.865 81.9706 127.349 76.6504 129 72L127 72z"/>
<path style="fill:#b6351e; stroke:none;" d="M23 73L21 81L22 81L23 73z"/>
<path style="fill:#698dad; stroke:none;" d="M91 80L91 81L96 84L99 79L103 80C98.9485 75.2032 95.8947 77.6234 91 80z"/>
<path style="fill:#b38203; stroke:none;" d="M101 77L106 80L101 77z"/>
<path style="fill:#426c8e; stroke:none;" d="M99 79L90 91L110 88C107.698 83.0815 104.233 80.3661 99 79z"/>
<path style="fill:#ff6e1b; stroke:none;" d="M10 88L17 88L18 88L18 91L19 91L20 81C14.5659 81.1778 12.3335 83.1539 10 88z"/>
<path style="fill:#ff1612; stroke:none;" d="M83 96L95 84C88.4346 77.9212 80.9406 89.5773 83 96z"/>
<path style="fill:#bec6b1; stroke:none;" d="M111 82L111 84L113 82L111 82z"/>
<path style="fill:#f57300; stroke:none;" d="M36 96C38.6445 92.5381 40.6345 91.2882 45 92L42 90L43 86L39 83L39 88C33.6199 87.4337 28.5625 83.9908 23 83.5C19.4269 83.1847 19.3559 87.6892 21.3333 89.6667C24.8806 93.2139 31.9861 92.9896 36 96z"/>
<path style="fill:#657684; stroke:none;" d="M68 96L68 97C75.2587 95.4217 81.5092 90.8679 86 85L68 96z"/>
<path style="fill:#1b456a; stroke:none;" d="M90 91L91 88C86.8903 91.1456 83.7894 94.7909 83 100C96.6714 102.01 101.404 98.2202 113 91C107.926 81.5309 98.1139 92.7589 90 91z"/>
<path style="fill:#ffab11; stroke:none;" d="M9 88L4 98C12.4724 100.679 32.2956 105.241 35 94C30.6928 93.8661 19.8991 86.4809 19 91L18 91L18 88L9 88z"/>
<path style="fill:#560004; stroke:none;" d="M52 117C66.0882 122.601 77.9934 99.5242 83 89C73.0276 93.4446 55.3033 106.16 52 117z"/>
<path style="fill:#597c72; stroke:none;" d="M118 90L118 92L120 90L118 90z"/>
<path style="fill:#40373d; stroke:none;" d="M48 91L49 94L50 94L50 91L48 91z"/>
<path style="fill:#6c6471; stroke:none;" d="M50 91L39 102L40 102L45 95L46 95L50 98L52 91L50 91z"/>
<path style="fill:#0d3152; stroke:none;" d="M82 98L76 110C90.5383 105.351 103.125 102.428 116 94C110.424 88.5575 102.626 97.9083 97 100.467C91.9194 102.777 86.5366 100.65 82 98z"/>
<path style="fill:#ff8e8a; stroke:none;" d="M80 93L79 100C82.2722 98.1936 82.8095 96.6184 82 93L80 93z"/>
<path style="fill:#070f17; stroke:none;" d="M50 96C49.4536 101.931 53.888 106.519 59 109L61 105L52 96L50 96z"/>
<path style="fill:#535b6b; stroke:none;" d="M57 100L56 100C59.0185 109.059 68.0623 99.7489 73 97L57 100z"/>
<path style="fill:#1d4962; stroke:none;" d="M47 97C42.4296 104.043 42.5281 110.847 52 105L47 111L55 106L55 105L47 97z"/>
<path style="fill:#ff1a17; stroke:none;" d="M77 97L70 110L74 112L81 100L77 97z"/>
<path style="fill:#ffe412; stroke:none;" d="M3 98L1 103L31 103L31 101L3 98z"/>
<path style="fill:#631000; stroke:none;" d="M33.3333 98.6667L33.6667 99.3333L33.3333 98.6667z"/>
<path style="fill:#943b01; stroke:none;" d="M32 100L33 101L32 100z"/>
<path style="fill:#f10200; stroke:none;" d="M74 113L68.1914 130.039L73 151C80.6422 148.308 97.6668 137.745 100.307 129.829C101.931 124.96 99.3875 118.238 100.214 113C101.008 107.963 104.951 104.48 107 100L74 113z"/>
<path style="fill:#ccb114; stroke:none;" d="M14 101L14 102L18 102L14 101z"/>
<path style="fill:#b96500; stroke:none;" d="M31.3333 101.667L31.6667 102.333L31.3333 101.667z"/>
<path style="fill:#727933; stroke:none;" d="M39 103L39 104L43 104L39 103z"/>
<path style="fill:#bb6200; stroke:none;" d="M28 110L28 111L40 105L28 110z"/>
<path style="fill:#ffe408; stroke:none;" d="M33 108L33 109L42 104L33 108z"/>
<path style="fill:#4e000c; stroke:none;" d="M75 109L72 115L99 105L75 109z"/>
<path style="fill:#fff773; stroke:none;" d="M41 105C38.1085 107.809 34.2178 108.007 31.3133 110.564C25.3733 115.794 24.9617 125.878 24.2739 132.961C23.8768 137.05 19.7198 139.88 24 143L23 139L32 143L33 143C34.8904 140.773 38.3326 137.526 37.8395 134.259C37.1824 129.906 31.884 129.48 36 125L35 116L37 116L38 126L45 125L52 117L41 105z"/>
<path style="fill:#746c3f; stroke:none;" d="M46 110L52 105L46 110z"/>
<path style="fill:#818485; stroke:none;" d="M48 111L48 112L51 115L52 115L58 110C54.2977 105.726 51.7475 107.579 48 111z"/>
<path style="fill:#ffa80f; stroke:none;" d="M68 111L69 117L73 111L68 111z"/>
<path style="fill:#860000; stroke:none;" d="M100 110L100 113L101 113L100 110z"/>
<path style="fill:#f9b600; stroke:none;" d="M12 149L16 149L36 141L33 143L32 143L20 144L30 111C17.5655 114.586 11.1672 137.955 12 149z"/>
<path style="fill:#ba2601; stroke:none;" d="M65 115L68 112L65 115z"/>
<path style="fill:#f60000; stroke:none;" d="M66 119L70 112C66.6473 113.726 65.8773 115.239 66 119z"/>
<path style="fill:#ab5701; stroke:none;" d="M73 114L73 119L74 119L73 114z"/>
<path style="fill:#ffffc1; stroke:none;" d="M35 116L36 125C30.7347 128.465 36.0422 132.318 40 134L44 124L38 126L37 116L35 116z"/>
<path style="fill:#ff6800; stroke:none;" d="M64 116L63 119L67 120L66 116L64 116z"/>
<path style="fill:#721300; stroke:none;" d="M36 140L62 119C49.0248 111.211 39.7108 130.336 36 140z"/>
<path style="fill:#386a6b; stroke:none;" d="M68 117L69 118L68 117z"/>
<path style="fill:#b6873c; stroke:none;" d="M49 118L50 119L49 118z"/>
<path style="fill:#ff9b13; stroke:none;" d="M62 118L59 120L61 123L62 123L62 118z"/>
<path style="fill:#483231; stroke:none;" d="M73 119L62 127L62 129L63 130C67.534 128.281 74.8071 124.758 73 119z"/>
<path style="fill:#8f7002; stroke:none;" d="M61 124L66 120L61 124z"/>
<path style="fill:#e68103; stroke:none;" d="M13 121L13 122L17 124L13 121z"/>
<path style="fill:#772700; stroke:none;" d="M19 121L19 124L20 124L19 121z"/>
<path style="fill:#fffe3e; stroke:none;" d="M34 145L61 125L60 121C51.5494 124.941 37.9664 136.5 34 145z"/>
<path style="fill:#ffc502; stroke:none;" d="M11 123L11 124L15 122L11 123z"/>
<path style="fill:#ff7d00; stroke:none;" d="M12 124L12 126L15 126L15 124L12 124z"/>
<path style="fill:#7f2a00; stroke:none;" d="M15 124L15 127L16 127L15 124z"/>
<path style="fill:#c63b00; stroke:none;" d="M59 125L60 126L59 125z"/>
<path style="fill:#be8c54; stroke:none;" d="M43 126L44 127L43 126z"/>
<path style="fill:#bf4004; stroke:none;" d="M58 126L59 127L58 126z"/>
<path style="fill:#722900; stroke:none;" d="M57.3333 127.667L57.6667 128.333L57.3333 127.667z"/>
<path style="fill:#dd6500; stroke:none;" d="M11 128L13 132L13 128L11 128z"/>
<path style="fill:#d35301; stroke:none;" d="M56 128L55 131L56 128z"/>
<path style="fill:#f83700; stroke:none;" d="M66 128C65.6401 133.661 67.9666 149.227 73 152L68 128L66 128z"/>
<path style="fill:#f75c00; stroke:none;" d="M14 129L11 141C15.2113 138.122 15.9599 133.671 14 129z"/>
<path style="fill:#fd5d00; stroke:none;" d="M61 129L61 130C66.6575 135.993 64 149.161 64 157L71 153C68.5466 145.152 70.6721 131.706 61 129z"/>
<path style="fill:#fff555; stroke:none;" d="M19 137C22.6799 135.521 23.0017 133.712 22 130C18.7507 131.806 18.4013 133.383 19 137z"/>
<path style="fill:#b7702d; stroke:none;" d="M40.3333 131.667L40.6667 132.333L40.3333 131.667z"/>
<path style="fill:#c15800; stroke:none;" d="M54 131L55 132L54 131z"/>
<path style="fill:#f5c907; stroke:none;" d="M62 131C62 136.884 59.3092 153.455 64 157L64 131L62 131z"/>
<path style="fill:#601a00; stroke:none;" d="M53.3333 132.667L53.6667 133.333L53.3333 132.667z"/>
<path style="fill:#a62b00; stroke:none;" d="M51 134L50 138L51 138L53 134L51 134z"/>
<path style="fill:#fff101; stroke:none;" d="M39 144L51 135C45.8448 136.222 41.4148 139.245 39 144z"/>
<path style="fill:#571b00; stroke:none;" d="M9 137L9 140L10 140L9 137z"/>
<path style="fill:#822a00; stroke:none;" d="M46 139L46 140L50 139L46 139z"/>
<path style="fill:#ffe739; stroke:none;" d="M23 139L24 143L21 140L20 140L20 144L29 142L23 139z"/>
<path style="fill:#ac3500; stroke:none;" d="M10 140L10 146L11 146L10 140z"/>
<path style="fill:#560200; stroke:none;" d="M35 140L36 141L35 140z"/>
<path style="fill:#bd7619; stroke:none;" d="M36 140L37 141L36 140z"/>
<path style="fill:#be4200; stroke:none;" d="M45.3333 140.667L45.6667 141.333L45.3333 140.667z"/>
<path style="fill:#fff862; stroke:none;" d="M14 141L16 145L16 141L14 141z"/>
<path style="fill:#ee5600; stroke:none;" d="M42 141L41 145L45 141L42 141z"/>
<path style="fill:#fbb800; stroke:none;" d="M35 145L35 146L41 145L35 145z"/>
<path style="fill:#f84e00; stroke:none;" d="M11 144L6 158L12 156L11 144z"/>
<path style="fill:#f25e00; stroke:none;" d="M27 145L28 149L16 147L24 153L38 147L27 145z"/>
<path style="fill:#c23700; stroke:none;" d="M33 147L33 148L43 146L33 147z"/>
<path style="fill:#a30001; stroke:none;" d="M80 147L83 145L80 147z"/>
<path style="fill:#ffe01f; stroke:none;" d="M23 146L23 149L28 149L28 146L23 146z"/>
<path style="fill:#fff245; stroke:none;" d="M12 151L16 151L15 148L12 151z"/>
<path style="fill:#f5af00; stroke:none;" d="M11 149L10 154L24 154L24 150L11 149z"/>
<path style="fill:#bd5a00; stroke:none;" d="M34 149L34 150L36 152L37 152L34 149z"/>
<path style="fill:#ea6601; stroke:none;" d="M33 150L36 153L36 152L33 150z"/>
<path style="fill:#ffe710; stroke:none;" d="M34 150L34 152L36 152L36 150L34 150z"/>
<path style="fill:#830002; stroke:none;" d="M74.6667 150.333L75.3333 150.667L74.6667 150.333z"/>
<path style="fill:#5b0001; stroke:none;" d="M71.6667 152.333L72.3333 152.667L71.6667 152.333z"/>
<path style="fill:#8a2f00; stroke:none;" d="M33.6667 153.333L34.3333 153.667L33.6667 153.333z"/>
<path style="fill:#920102; stroke:none;" d="M69.6667 153.333L70.3333 153.667L69.6667 153.333z"/>
<path style="fill:#b65a00; stroke:none;" d="M12 154L12 155L23 155L12 154z"/>
<path style="fill:#590000; stroke:none;" d="M66.6667 155.333L67.3333 155.667L66.6667 155.333z"/>
<path style="fill:#973300; stroke:none;" d="M62.6667 157.333L63.3333 157.667L62.6667 157.333z"/>
</svg>
