<svg id="svg" version="1.1" xmlns="http://www.w3.org/2000/svg" xmlns:xlink="http://www.w3.org/1999/xlink" width="400" height="319.8992443324937" viewBox="0, 0, 400,319.8992443324937"><g id="svgg"><path id="path0" d="M0.000 159.950 L 0.000 319.899 200.000 319.899 L 400.000 319.899 400.000 159.950 L 400.000 0.000 200.000 0.000 L 0.000 0.000 0.000 159.950 M278.589 79.612 C 282.938 80.311,284.120 81.804,284.322 86.853 C 284.553 92.621,282.810 102.880,279.821 113.350 C 278.062 119.511,273.854 128.750,268.894 137.342 C 266.753 141.050,261.347 148.965,260.020 150.333 C 259.843 150.516,259.698 150.746,259.698 150.843 C 259.698 150.941,259.377 151.372,258.986 151.801 C 258.594 152.230,258.025 152.896,257.722 153.282 C 254.102 157.884,246.594 164.999,241.625 168.537 C 240.413 169.400,239.137 170.357,238.791 170.663 C 237.855 171.489,233.207 174.578,230.488 176.181 C 227.445 177.975,224.735 181.943,222.499 187.880 C 220.674 192.727,220.639 202.029,222.419 209.051 C 222.993 211.312,223.490 210.553,218.375 215.222 C 203.119 229.147,188.652 239.514,183.215 240.416 L 182.172 240.589 182.025 235.723 C 181.944 233.046,181.822 225.954,181.753 219.962 L 181.629 209.068 183.389 208.123 C 184.358 207.604,187.131 206.065,189.552 204.704 L 193.955 202.229 193.955 197.567 C 193.955 193.939,193.885 192.933,193.640 193.029 C 193.467 193.098,191.823 193.640,189.988 194.235 L 186.650 195.316 187.433 196.124 L 188.215 196.931 185.005 200.614 C 181.949 204.119,181.772 204.277,181.331 203.878 C 180.895 203.483,180.810 203.501,179.917 204.178 C 178.395 205.330,165.376 218.451,165.067 219.144 C 164.913 219.490,164.658 220.118,164.500 220.540 C 164.043 221.764,161.423 224.279,156.323 228.389 C 155.960 228.681,155.273 228.765,153.484 228.735 C 147.411 228.632,143.993 229.957,141.888 233.228 C 139.830 236.428,137.556 237.195,130.909 236.931 C 126.355 236.750,126.288 236.769,124.042 238.803 C 121.372 241.221,120.751 239.175,123.380 236.622 L 124.256 235.770 124.092 233.691 C 124.002 232.548,123.857 230.920,123.771 230.074 C 123.619 228.579,123.639 228.507,124.491 227.555 C 125.881 226.000,126.004 225.587,126.196 221.796 C 126.427 217.239,126.704 216.651,129.219 215.379 C 130.704 214.629,130.766 214.506,130.580 212.663 C 130.356 210.448,130.537 210.009,132.224 208.684 C 133.954 207.325,134.811 206.134,135.420 204.245 C 136.813 199.926,144.682 190.625,149.244 187.906 C 150.251 187.306,156.927 180.939,156.927 180.579 C 156.927 180.474,156.739 180.201,156.509 179.971 C 156.120 179.582,156.327 179.317,159.528 176.116 L 162.966 172.679 164.428 174.126 L 165.890 175.573 166.461 172.107 C 166.775 170.200,167.095 168.328,167.172 167.947 L 167.313 167.254 162.403 167.254 C 155.618 167.254,156.259 166.994,154.431 170.493 C 153.588 172.106,152.098 174.899,151.120 176.700 C 150.142 178.501,149.278 180.173,149.200 180.416 C 149.068 180.830,148.040 180.856,132.310 180.856 L 115.560 180.856 115.733 179.660 C 116.482 174.495,121.238 165.944,127.326 158.816 C 128.036 157.985,129.399 156.285,130.356 155.038 C 133.528 150.902,141.415 141.547,144.655 138.079 L 145.909 136.737 147.576 137.129 C 153.884 138.609,163.276 138.794,167.960 137.530 C 174.912 135.654,186.057 127.899,189.295 122.685 C 189.849 121.792,190.517 120.942,190.778 120.795 C 191.040 120.649,191.720 120.020,192.290 119.398 C 203.214 107.457,212.712 99.296,224.811 91.450 C 229.288 88.547,238.277 84.736,242.947 83.761 C 244.055 83.529,245.189 83.240,245.466 83.118 C 247.059 82.415,263.256 79.875,268.388 79.522 C 271.353 79.319,277.078 79.369,278.589 79.612 M235.331 93.128 C 235.714 93.186,236.281 93.184,236.590 93.124 C 236.900 93.065,236.587 93.017,235.894 93.019 C 235.202 93.021,234.948 93.070,235.331 93.128 M245.340 96.599 C 245.810 97.084,246.251 97.481,246.320 97.481 C 246.390 97.481,246.062 97.084,245.592 96.599 C 245.122 96.115,244.681 95.718,244.612 95.718 C 244.542 95.718,244.870 96.115,245.340 96.599 M217.674 99.685 L 216.728 100.630 217.621 99.875 C 218.112 99.460,218.622 99.034,218.753 98.930 C 218.885 98.826,218.909 98.741,218.806 98.741 C 218.704 98.741,218.195 99.166,217.674 99.685 M249.203 106.801 C 249.203 107.840,249.248 108.265,249.302 107.746 C 249.356 107.226,249.356 106.376,249.302 105.856 C 249.248 105.337,249.203 105.762,249.203 106.801 M207.639 117.506 C 207.640 118.476,207.686 118.842,207.741 118.319 C 207.795 117.797,207.794 117.003,207.738 116.556 C 207.683 116.109,207.638 116.537,207.639 117.506 M208.582 122.544 C 208.582 122.683,208.744 123.079,208.942 123.426 C 209.140 123.772,209.302 123.942,209.302 123.804 C 209.302 123.665,209.140 123.268,208.942 122.922 C 208.744 122.576,208.582 122.406,208.582 122.544 M216.877 129.963 C 217.084 130.104,217.472 130.221,217.737 130.223 C 218.382 130.228,218.181 130.084,217.254 129.877 C 216.703 129.753,216.601 129.777,216.877 129.963 M219.962 130.652 C 220.205 130.716,220.601 130.716,220.844 130.652 C 221.086 130.589,220.888 130.537,220.403 130.537 C 219.918 130.537,219.720 130.589,219.962 130.652 M225.633 130.657 C 225.946 130.717,226.399 130.715,226.640 130.652 C 226.881 130.589,226.625 130.539,226.071 130.542 C 225.516 130.545,225.319 130.596,225.633 130.657 " stroke="none" fill="#fbfbfb" fill-rule="evenodd"></path><path id="path1" d="M231.385 93.856 C 213.259 97.129,201.598 116.773,211.892 126.696 C 218.935 133.487,236.083 130.712,243.187 121.633 C 254.931 106.624,248.214 90.816,231.385 93.856 M234.887 97.229 C 234.972 97.368,235.432 97.481,235.909 97.481 C 236.386 97.481,236.776 97.594,236.776 97.733 C 236.776 97.872,236.990 97.985,237.253 97.985 C 237.515 97.985,237.795 98.155,237.874 98.363 C 237.954 98.571,238.184 98.741,238.386 98.741 C 239.286 98.741,241.156 101.648,241.709 103.904 C 242.113 105.554,241.789 110.831,241.283 110.831 C 241.159 110.831,241.058 111.059,241.058 111.338 C 241.058 111.909,240.056 114.187,239.747 114.316 C 239.637 114.362,239.547 114.617,239.547 114.882 C 239.547 115.148,239.433 115.365,239.295 115.365 C 239.156 115.365,239.043 115.526,239.043 115.722 C 239.043 115.918,238.958 116.117,238.854 116.163 C 238.750 116.209,238.352 116.666,237.969 117.179 C 237.586 117.692,236.934 118.312,236.520 118.556 C 236.107 118.800,235.768 119.095,235.768 119.210 C 235.768 119.482,234.459 120.635,234.131 120.653 C 233.992 120.660,233.596 120.888,233.249 121.159 C 232.903 121.430,232.421 121.654,232.179 121.657 C 231.936 121.660,231.738 121.776,231.738 121.914 C 231.738 122.053,231.518 122.166,231.249 122.166 C 230.980 122.166,230.698 122.267,230.622 122.389 C 230.547 122.512,230.115 122.686,229.663 122.776 C 229.211 122.867,228.275 123.064,227.582 123.214 C 225.128 123.747,220.468 123.482,219.883 122.776 C 219.733 122.596,219.465 122.504,219.288 122.572 C 218.476 122.884,214.840 119.844,214.133 118.262 C 213.947 117.846,213.695 117.309,213.573 117.069 C 213.282 116.498,213.284 111.709,213.574 111.143 C 213.698 110.902,214.066 110.139,214.393 109.446 C 214.720 108.753,215.072 108.149,215.176 108.102 C 215.280 108.056,215.365 107.841,215.365 107.624 C 215.365 107.407,215.746 106.860,216.211 106.408 C 216.677 105.956,217.126 105.406,217.211 105.186 C 217.295 104.966,217.545 104.786,217.765 104.786 C 217.985 104.786,218.112 104.700,218.047 104.594 C 217.837 104.254,218.601 103.458,218.993 103.608 C 219.235 103.701,219.325 103.635,219.244 103.425 C 219.175 103.245,219.391 102.918,219.725 102.699 C 220.059 102.481,220.490 102.145,220.683 101.953 C 221.379 101.258,222.526 100.635,222.969 100.710 C 223.257 100.759,223.376 100.666,223.296 100.456 C 223.216 100.245,223.672 99.898,224.557 99.496 C 225.319 99.150,225.943 98.781,225.944 98.678 C 225.944 98.574,226.228 98.489,226.574 98.489 C 226.921 98.489,227.204 98.375,227.204 98.237 C 227.204 98.098,227.537 97.985,227.945 97.985 C 228.352 97.985,228.756 97.872,228.841 97.733 C 228.927 97.594,229.437 97.481,229.975 97.481 C 230.513 97.481,231.023 97.368,231.108 97.229 C 231.194 97.091,232.044 96.977,232.997 96.977 C 233.951 96.977,234.801 97.091,234.887 97.229 M214.613 109.761 C 214.611 110.072,214.723 110.327,214.861 110.327 C 215.177 110.327,215.177 110.060,214.861 109.572 C 214.664 109.266,214.617 109.302,214.613 109.761 M186.020 126.873 C 180.330 131.966,172.832 136.420,167.603 137.811 C 163.546 138.891,154.400 138.743,148.435 137.502 L 145.863 136.966 144.629 138.319 C 138.742 144.772,128.478 157.277,128.801 157.601 C 129.051 157.850,167.602 165.506,167.947 165.375 C 168.120 165.309,168.262 165.106,168.262 164.925 C 168.262 164.614,171.058 157.476,172.036 155.290 C 172.503 154.246,173.318 152.412,173.995 150.882 C 174.796 149.070,180.113 138.352,180.992 136.776 C 183.540 132.207,186.147 127.773,186.960 126.623 C 187.722 125.545,187.411 125.628,186.020 126.873 M226.574 178.311 C 223.986 179.824,216.099 183.859,213.287 185.110 C 210.867 186.187,209.677 186.712,208.816 187.084 C 208.331 187.294,207.594 187.612,207.179 187.792 C 206.763 187.971,205.063 188.648,203.401 189.296 C 201.738 189.944,200.151 190.566,199.874 190.678 C 198.854 191.093,196.567 191.922,195.466 192.278 L 194.332 192.644 194.207 197.494 L 194.081 202.344 189.295 205.052 C 184.746 207.626,184.511 207.796,184.563 208.477 C 184.644 209.545,189.220 237.135,189.339 237.269 C 190.340 238.397,208.592 224.200,220.639 212.921 L 222.764 210.931 222.351 209.433 C 219.413 198.780,220.731 188.615,226.123 180.353 C 227.765 177.836,227.768 177.831,227.534 177.852 C 227.422 177.861,226.990 178.068,226.574 178.311 " stroke="none" fill="#bc1b12" fill-rule="evenodd"></path><path id="path2" d="M126.333 160.365 C 121.916 165.929,117.856 172.762,116.758 176.482 C 116.518 177.295,116.211 178.259,116.076 178.625 C 115.941 178.991,115.867 179.615,115.913 180.011 L 115.995 180.730 132.128 180.795 C 144.784 180.846,148.348 180.792,148.662 180.543 C 148.882 180.369,150.223 178.016,151.641 175.315 C 155.026 168.868,155.676 167.665,155.877 167.469 C 155.970 167.379,158.539 167.235,161.587 167.149 C 166.354 167.014,167.172 166.934,167.443 166.572 C 167.718 166.204,167.881 165.491,167.691 165.491 C 167.653 165.491,158.843 163.734,148.111 161.587 C 137.379 159.440,128.568 157.683,128.531 157.683 C 128.493 157.683,127.504 158.890,126.333 160.365 M155.407 182.601 C 153.008 185.170,149.695 188.114,148.539 188.704 C 147.168 189.403,142.139 194.546,139.478 197.969 C 137.375 200.674,136.302 202.558,135.380 205.164 C 135.039 206.127,134.433 206.916,132.804 208.516 L 130.674 210.608 130.851 212.493 C 131.059 214.716,130.983 214.852,128.955 215.875 C 126.919 216.903,126.624 217.613,126.447 221.914 C 126.296 225.586,126.123 226.158,124.650 227.835 C 123.905 228.684,123.877 228.796,124.027 230.294 C 124.114 231.158,124.255 232.751,124.342 233.834 L 124.500 235.805 123.613 236.731 C 121.431 239.009,121.387 240.944,123.565 238.836 C 125.876 236.600,125.693 236.650,131.486 236.650 C 138.505 236.650,139.514 236.280,141.822 232.859 C 143.911 229.763,146.307 228.778,152.218 228.583 L 155.696 228.469 157.880 226.766 C 161.265 224.127,164.071 221.228,164.432 219.998 C 164.725 218.995,170.522 212.406,172.787 210.499 C 174.937 208.691,180.353 203.385,180.353 203.089 C 180.353 202.905,179.944 202.390,179.445 201.944 C 178.055 200.702,172.267 195.162,169.124 192.065 C 167.577 190.542,165.815 188.855,165.209 188.318 C 164.602 187.780,162.603 185.882,160.766 184.099 C 156.834 180.281,157.420 180.445,155.407 182.601 M182.775 208.648 L 181.798 209.192 181.959 220.276 C 182.047 226.372,182.191 233.385,182.277 235.859 L 182.434 240.357 183.346 240.216 C 183.847 240.138,185.395 239.501,186.787 238.802 L 189.317 237.530 186.865 222.858 C 185.516 214.789,184.406 208.158,184.398 208.123 C 184.353 207.937,183.639 208.169,182.775 208.648 " stroke="none" fill="#fbcb20" fill-rule="evenodd"></path><path id="path3" d="M268.231 79.712 C 268.152 79.791,266.738 79.972,265.089 80.115 C 263.440 80.257,261.411 80.481,260.579 80.612 C 259.748 80.743,258.331 80.959,257.431 81.093 C 256.530 81.227,255.113 81.461,254.282 81.612 C 253.451 81.763,252.204 81.983,251.511 82.100 C 247.394 82.797,245.493 83.341,246.411 83.559 C 246.653 83.617,246.851 83.769,246.851 83.898 C 246.851 84.026,247.021 84.131,247.229 84.131 C 247.437 84.131,247.607 84.244,247.607 84.383 C 247.607 84.521,247.769 84.635,247.967 84.635 C 248.165 84.635,248.477 84.783,248.660 84.964 C 248.843 85.145,249.361 85.509,249.811 85.774 C 250.261 86.038,250.630 86.344,250.630 86.452 C 250.630 86.561,250.800 86.650,251.008 86.650 C 251.215 86.650,251.385 86.763,251.385 86.902 C 251.385 87.040,251.499 87.154,251.637 87.154 C 251.776 87.154,252.108 87.352,252.375 87.594 C 253.282 88.418,253.631 88.665,253.884 88.665 C 254.023 88.665,254.339 88.871,254.587 89.122 C 254.835 89.373,255.903 90.277,256.961 91.130 C 258.019 91.983,260.116 93.898,261.621 95.386 C 263.126 96.873,264.443 98.067,264.547 98.038 C 264.651 98.009,264.736 98.072,264.736 98.179 C 264.736 98.286,265.480 99.164,266.389 100.131 C 267.299 101.098,268.734 102.739,269.579 103.778 C 270.424 104.817,271.288 105.809,271.500 105.982 C 271.711 106.156,271.807 106.297,271.713 106.297 C 271.551 106.297,272.030 106.952,272.733 107.693 C 272.906 107.875,273.048 108.146,273.048 108.294 C 273.048 108.443,273.133 108.566,273.237 108.567 C 273.341 108.569,273.816 109.193,274.294 109.953 C 274.771 110.713,275.253 111.335,275.364 111.335 C 275.476 111.335,275.567 111.453,275.567 111.597 C 275.567 111.742,275.793 112.103,276.071 112.401 C 276.348 112.698,276.574 113.090,276.574 113.272 C 276.574 113.453,276.692 113.602,276.835 113.602 C 276.978 113.602,277.347 114.171,277.654 114.867 C 277.989 115.626,278.352 116.104,278.563 116.063 C 278.919 115.994,279.260 114.949,280.353 110.579 C 280.491 110.025,280.727 109.090,280.877 108.501 C 281.890 104.523,282.391 102.352,282.633 100.882 C 282.748 100.189,282.963 99.057,283.112 98.365 C 283.261 97.674,283.447 96.371,283.527 95.469 C 283.606 94.567,283.774 93.432,283.899 92.947 C 284.200 91.789,284.198 84.823,283.897 84.080 C 283.768 83.762,283.597 83.194,283.517 82.819 C 283.348 82.027,281.934 80.607,281.312 80.606 C 281.078 80.605,280.824 80.503,280.747 80.379 C 280.451 79.900,268.671 79.272,268.231 79.712 M190.662 121.230 C 190.182 121.601,188.539 124.142,188.309 124.869 C 188.218 125.156,187.694 126.086,187.145 126.936 C 186.595 127.785,186.146 128.541,186.146 128.616 C 186.146 128.690,185.826 129.224,185.434 129.803 C 183.070 133.299,176.505 145.986,173.352 153.149 C 173.078 153.772,172.624 154.792,172.344 155.416 C 172.065 156.039,171.305 157.909,170.656 159.572 C 169.253 163.166,169.029 163.716,168.736 164.291 C 168.614 164.532,168.514 164.902,168.514 165.113 C 168.514 165.500,168.428 165.708,167.668 167.167 C 167.441 167.604,167.254 168.460,167.254 169.069 C 167.254 169.678,167.148 170.284,167.017 170.416 C 166.797 170.637,166.690 171.313,166.338 174.708 L 166.205 175.990 169.815 179.363 C 171.801 181.218,173.539 182.868,173.678 183.030 C 175.293 184.922,186.517 195.158,186.858 195.050 C 187.090 194.977,187.506 194.827,187.783 194.717 C 188.060 194.608,189.137 194.265,190.176 193.955 C 192.306 193.319,192.513 193.242,194.506 192.338 C 195.294 191.980,196.060 191.688,196.209 191.688 C 196.358 191.688,196.706 191.574,196.981 191.436 C 197.256 191.297,197.706 191.071,197.981 190.932 C 198.257 190.793,198.655 190.680,198.866 190.680 C 199.078 190.680,199.476 190.567,199.752 190.428 C 200.027 190.290,200.477 190.063,200.752 189.924 C 201.027 189.786,201.373 189.673,201.520 189.673 C 201.667 189.673,202.257 189.446,202.830 189.169 C 203.404 188.892,203.966 188.665,204.080 188.665 C 204.194 188.665,204.796 188.438,205.418 188.161 C 206.040 187.884,207.058 187.431,207.680 187.154 C 208.302 186.877,208.872 186.650,208.946 186.650 C 209.075 186.650,210.582 185.961,214.861 183.946 C 217.517 182.696,222.353 180.276,223.552 179.598 C 226.146 178.130,228.724 176.826,229.034 176.826 C 229.222 176.826,229.602 176.628,229.877 176.385 C 230.367 175.955,230.653 175.774,232.417 174.783 C 232.891 174.517,233.521 174.074,233.816 173.799 C 234.111 173.525,234.487 173.300,234.651 173.300 C 234.816 173.300,235.094 173.128,235.268 172.917 C 235.443 172.707,235.967 172.354,236.433 172.133 C 236.898 171.912,237.280 171.631,237.280 171.508 C 237.280 171.385,237.393 171.285,237.531 171.285 C 237.760 171.285,238.791 170.392,238.791 170.195 C 238.791 170.149,237.289 168.580,235.453 166.708 C 228.858 159.981,223.793 154.695,223.208 153.929 C 222.881 153.500,222.469 153.149,222.293 153.149 C 222.117 153.149,221.799 152.885,221.588 152.562 C 221.376 152.239,219.712 150.482,217.889 148.658 C 216.066 146.833,214.643 145.340,214.727 145.340 C 214.811 145.340,214.450 144.972,213.926 144.522 C 213.401 144.072,212.894 143.594,212.798 143.460 C 212.481 143.017,207.747 138.065,204.030 134.288 C 202.021 132.246,200.114 130.214,199.792 129.772 C 199.470 129.329,199.026 128.967,198.805 128.967 C 198.585 128.967,198.462 128.909,198.533 128.839 C 198.604 128.768,197.517 127.536,196.119 126.100 C 194.721 124.665,193.040 122.909,192.384 122.198 C 191.728 121.488,191.162 120.910,191.125 120.915 C 191.088 120.919,190.880 121.061,190.662 121.230 " stroke="none" fill="#3c84c3" fill-rule="evenodd"></path><path id="path4" d="M249.678 89.309 C 249.293 89.579,249.118 89.959,249.118 90.529 C 249.118 92.149,250.883 92.784,251.875 91.522 C 253.029 90.055,251.218 88.231,249.678 89.309 M258.438 92.569 C 258.908 93.054,259.349 93.451,259.419 93.451 C 259.488 93.451,259.160 93.054,258.690 92.569 C 258.220 92.084,257.779 91.688,257.710 91.688 C 257.640 91.688,257.968 92.084,258.438 92.569 M261.209 95.088 C 261.679 95.573,262.120 95.970,262.190 95.970 C 262.259 95.970,261.931 95.573,261.461 95.088 C 260.991 94.603,260.550 94.207,260.481 94.207 C 260.411 94.207,260.739 94.603,261.209 95.088 M231.108 97.229 C 231.023 97.368,230.513 97.481,229.975 97.481 C 229.437 97.481,228.927 97.594,228.841 97.733 C 228.756 97.872,228.352 97.985,227.945 97.985 C 227.537 97.985,227.204 98.098,227.204 98.237 C 227.204 98.375,226.921 98.489,226.574 98.489 C 226.228 98.489,225.944 98.574,225.944 98.678 C 225.943 98.781,225.319 99.150,224.557 99.496 C 223.672 99.898,223.216 100.245,223.296 100.456 C 223.376 100.666,223.257 100.759,222.969 100.710 C 222.526 100.635,221.379 101.258,220.683 101.953 C 220.490 102.145,220.059 102.481,219.725 102.699 C 219.391 102.918,219.175 103.245,219.244 103.425 C 219.325 103.635,219.235 103.701,218.993 103.608 C 218.601 103.458,217.837 104.254,218.047 104.594 C 218.112 104.700,217.985 104.786,217.765 104.786 C 217.545 104.786,217.295 104.966,217.211 105.186 C 217.126 105.406,216.677 105.956,216.211 106.408 C 215.746 106.860,215.365 107.407,215.365 107.624 C 215.365 107.841,215.280 108.056,215.176 108.102 C 215.072 108.149,214.720 108.753,214.393 109.446 C 214.066 110.139,213.698 110.902,213.574 111.143 C 213.284 111.709,213.282 116.498,213.573 117.069 C 213.695 117.309,213.947 117.846,214.133 118.262 C 214.840 119.844,218.476 122.884,219.288 122.572 C 219.465 122.504,219.733 122.596,219.883 122.776 C 220.468 123.482,225.128 123.747,227.582 123.214 C 228.275 123.064,229.211 122.867,229.663 122.776 C 230.115 122.686,230.547 122.512,230.622 122.389 C 230.698 122.267,230.980 122.166,231.249 122.166 C 231.518 122.166,231.738 122.053,231.738 121.914 C 231.738 121.776,231.936 121.660,232.179 121.657 C 232.421 121.654,232.903 121.430,233.249 121.159 C 233.596 120.888,233.992 120.660,234.131 120.653 C 234.459 120.635,235.768 119.482,235.768 119.210 C 235.768 119.095,236.107 118.800,236.520 118.556 C 236.934 118.312,237.586 117.692,237.969 117.179 C 238.352 116.666,238.750 116.209,238.854 116.163 C 238.958 116.117,239.043 115.918,239.043 115.722 C 239.043 115.526,239.156 115.365,239.295 115.365 C 239.433 115.365,239.547 115.148,239.547 114.882 C 239.547 114.617,239.637 114.362,239.747 114.316 C 240.056 114.187,241.058 111.909,241.058 111.338 C 241.058 111.059,241.159 110.831,241.283 110.831 C 241.789 110.831,242.113 105.554,241.709 103.904 C 241.156 101.648,239.286 98.741,238.386 98.741 C 238.184 98.741,237.954 98.571,237.874 98.363 C 237.795 98.155,237.515 97.985,237.253 97.985 C 236.990 97.985,236.776 97.872,236.776 97.733 C 236.776 97.594,236.386 97.481,235.909 97.481 C 235.432 97.481,234.972 97.368,234.887 97.229 C 234.801 97.091,233.951 96.977,232.997 96.977 C 232.044 96.977,231.194 97.091,231.108 97.229 M264.987 98.819 C 264.987 98.863,265.356 99.231,265.806 99.638 L 266.625 100.378 265.885 99.559 C 265.195 98.796,264.987 98.625,264.987 98.819 M262.273 101.400 C 261.055 102.252,261.841 104.282,263.388 104.282 C 263.969 104.282,264.987 103.211,264.987 102.599 C 264.987 101.471,263.261 100.707,262.273 101.400 M268.010 102.141 C 268.480 102.626,268.921 103.023,268.991 103.023 C 269.060 103.023,268.732 102.626,268.262 102.141 C 267.792 101.656,267.351 101.259,267.282 101.259 C 267.212 101.259,267.540 101.656,268.010 102.141 M215.109 110.139 C 215.112 110.242,215.000 110.327,214.861 110.327 C 214.723 110.327,214.611 110.072,214.613 109.761 C 214.617 109.220,215.098 109.586,215.109 110.139 M272.292 114.106 C 271.295 115.103,272.020 116.877,273.426 116.877 C 274.234 116.877,275.063 116.048,275.063 115.239 C 275.063 114.431,274.234 113.602,273.426 113.602 C 273.079 113.602,272.569 113.829,272.292 114.106 M187.907 125.011 C 187.708 125.317,187.418 125.793,187.262 126.071 C 187.105 126.348,186.417 127.481,185.733 128.589 C 184.536 130.526,182.927 133.304,180.991 136.776 C 180.112 138.352,174.795 149.072,173.995 150.882 C 172.857 153.455,172.558 154.127,172.092 155.164 C 170.222 159.325,167.394 166.975,167.636 167.217 C 167.697 167.277,167.814 167.112,167.897 166.850 C 167.979 166.587,168.152 166.176,168.280 165.935 C 168.409 165.695,168.514 165.325,168.514 165.113 C 168.514 164.902,168.614 164.532,168.736 164.291 C 169.029 163.716,169.253 163.166,170.656 159.572 C 171.305 157.909,172.052 156.067,172.316 155.479 C 172.580 154.890,173.033 153.870,173.324 153.212 C 176.539 145.918,183.060 133.315,185.434 129.803 C 185.826 129.224,186.146 128.678,186.146 128.589 C 186.146 128.501,186.470 127.954,186.866 127.375 C 187.721 126.126,188.487 124.675,188.359 124.547 C 188.309 124.497,188.106 124.706,187.907 125.011 M195.466 125.520 C 195.466 125.563,195.834 125.931,196.285 126.338 L 197.103 127.078 196.363 126.259 C 195.674 125.496,195.466 125.325,195.466 125.520 M202.771 127.204 C 201.790 128.185,202.494 129.975,203.860 129.975 C 204.183 129.975,204.693 129.712,204.994 129.392 C 206.395 127.900,204.218 125.757,202.771 127.204 M202.015 132.368 C 202.908 133.268,203.695 134.005,203.764 134.005 C 203.833 134.005,203.160 133.268,202.267 132.368 C 201.375 131.467,200.588 130.730,200.518 130.730 C 200.449 130.730,201.123 131.467,202.015 132.368 M210.705 141.310 C 211.388 142.003,212.002 142.569,212.072 142.569 C 212.141 142.569,211.639 142.003,210.957 141.310 C 210.275 140.617,209.660 140.050,209.591 140.050 C 209.521 140.050,210.023 140.617,210.705 141.310 M219.762 143.188 C 218.671 144.279,219.322 145.844,220.868 145.844 C 222.570 145.844,223.024 143.666,221.490 142.859 C 220.704 142.445,220.458 142.492,219.762 143.188 M212.750 143.388 C 212.827 143.561,213.305 144.036,213.813 144.444 L 214.736 145.185 213.740 144.129 C 212.677 143.002,212.530 142.891,212.750 143.388 M221.560 152.519 C 221.787 152.865,222.092 153.149,222.239 153.149 C 222.386 153.149,222.240 152.865,221.914 152.519 C 221.589 152.173,221.283 151.889,221.235 151.889 C 221.187 151.889,221.333 152.173,221.560 152.519 M226.952 158.013 C 226.952 158.057,227.321 158.425,227.771 158.832 L 228.589 159.572 227.850 158.753 C 227.160 157.990,226.952 157.819,226.952 158.013 M233.591 158.836 C 233.050 159.662,233.354 160.658,234.312 161.196 C 235.679 161.963,237.196 159.850,236.126 158.668 C 235.466 157.939,234.121 158.028,233.591 158.836 M232.997 164.358 C 233.467 164.843,233.909 165.239,233.978 165.239 C 234.047 165.239,233.719 164.843,233.249 164.358 C 232.779 163.873,232.338 163.476,232.269 163.476 C 232.200 163.476,232.528 163.873,232.997 164.358 M235.254 166.562 C 235.872 167.220,236.410 167.758,236.450 167.758 C 236.640 167.758,236.440 167.532,235.327 166.488 L 234.131 165.365 235.254 166.562 M237.531 168.892 C 238.001 169.377,238.443 169.773,238.512 169.773 C 238.581 169.773,238.253 169.377,237.783 168.892 C 237.313 168.407,236.872 168.010,236.803 168.010 C 236.734 168.010,237.062 168.407,237.531 168.892 M159.497 176.151 L 156.189 179.471 164.430 187.381 C 168.962 191.731,174.682 197.228,177.140 199.597 C 179.599 201.966,181.696 203.925,181.800 203.950 C 181.905 203.976,183.372 202.389,185.061 200.424 L 188.131 196.851 186.950 195.703 C 186.300 195.072,183.161 192.084,179.975 189.062 C 176.788 186.041,174.011 183.384,173.804 183.157 C 173.596 182.929,171.810 181.233,169.836 179.386 C 167.371 177.081,166.246 175.858,166.243 175.483 C 166.240 175.112,166.174 175.039,166.037 175.255 C 165.892 175.484,165.411 175.189,164.320 174.202 L 162.805 172.830 159.497 176.151 M227.078 177.669 C 226.247 178.117,224.672 178.974,223.578 179.575 C 221.529 180.700,218.170 182.385,214.861 183.945 C 210.708 185.904,209.076 186.650,208.946 186.650 C 208.872 186.650,208.302 186.877,207.680 187.154 C 207.058 187.431,206.040 187.884,205.418 188.161 C 204.796 188.438,204.194 188.665,204.080 188.665 C 203.966 188.665,203.404 188.892,202.830 189.169 C 202.257 189.446,201.667 189.673,201.520 189.673 C 201.373 189.673,200.999 189.804,200.689 189.964 C 199.506 190.575,199.240 190.680,198.866 190.680 C 198.655 190.680,198.285 190.780,198.044 190.903 C 197.419 191.221,196.525 191.584,195.146 192.082 C 194.484 192.321,193.985 192.557,194.035 192.608 C 194.170 192.743,197.566 191.622,199.874 190.680 C 200.151 190.566,201.738 189.944,203.401 189.296 C 205.063 188.648,206.820 187.944,207.305 187.732 C 207.790 187.520,208.526 187.201,208.942 187.024 C 209.705 186.700,210.920 186.165,213.224 185.139 C 214.866 184.408,222.128 180.780,223.779 179.866 C 224.485 179.476,225.686 178.830,226.448 178.432 C 227.210 178.034,227.890 177.641,227.960 177.560 C 228.029 177.479,228.312 177.284,228.589 177.127 C 229.775 176.455,228.453 176.929,227.078 177.669 " stroke="none" fill="#5c709a" fill-rule="evenodd"></path><path id="path5" d="M234.950 93.381 C 235.400 93.437,236.137 93.437,236.587 93.381 C 237.037 93.325,236.669 93.280,235.768 93.280 C 234.868 93.280,234.499 93.325,234.950 93.381 M244.584 96.049 C 244.584 96.092,244.953 96.460,245.403 96.867 L 246.222 97.607 245.482 96.788 C 244.792 96.025,244.584 95.854,244.584 96.049 M222.607 96.618 C 221.630 97.147,221.741 97.330,222.733 96.826 C 223.682 96.343,223.851 96.218,223.531 96.232 C 223.404 96.237,222.988 96.411,222.607 96.618 M248.925 105.038 C 248.925 105.523,248.977 105.721,249.040 105.479 C 249.103 105.236,249.103 104.839,249.040 104.597 C 248.977 104.355,248.925 104.553,248.925 105.038 M248.930 107.935 C 248.933 108.489,248.984 108.686,249.045 108.372 C 249.105 108.059,249.103 107.606,249.040 107.365 C 248.977 107.124,248.927 107.380,248.930 107.935 M207.867 116.121 C 207.867 116.606,207.919 116.804,207.982 116.562 C 208.046 116.319,208.046 115.923,207.982 115.680 C 207.919 115.438,207.867 115.636,207.867 116.121 M207.867 118.892 C 207.867 119.377,207.919 119.575,207.982 119.332 C 208.046 119.090,208.046 118.693,207.982 118.451 C 207.919 118.208,207.867 118.407,207.867 118.892 M186.256 126.511 L 185.516 127.330 186.335 126.590 C 186.785 126.183,187.154 125.815,187.154 125.772 C 187.154 125.577,186.946 125.748,186.256 126.511 M155.104 138.465 C 155.417 138.526,155.870 138.523,156.111 138.460 C 156.352 138.397,156.096 138.348,155.542 138.351 C 154.987 138.353,154.790 138.405,155.104 138.465 M162.406 138.465 C 162.717 138.525,163.227 138.525,163.539 138.465 C 163.851 138.405,163.596 138.356,162.972 138.356 C 162.349 138.356,162.094 138.405,162.406 138.465 M159.824 183.123 C 160.506 183.816,161.121 184.383,161.190 184.383 C 161.259 184.383,160.758 183.816,160.076 183.123 C 159.393 182.431,158.778 181.864,158.709 181.864 C 158.640 181.864,159.141 182.431,159.824 183.123 M220.979 194.081 C 220.981 194.773,221.030 195.027,221.088 194.644 C 221.145 194.261,221.144 193.694,221.084 193.384 C 221.024 193.075,220.977 193.388,220.979 194.081 M194.027 194.332 C 194.029 195.025,194.078 195.279,194.135 194.896 C 194.193 194.513,194.192 193.946,194.132 193.636 C 194.072 193.327,194.025 193.640,194.027 194.332 M220.982 200.252 C 220.982 201.014,221.030 201.326,221.087 200.945 C 221.145 200.564,221.145 199.940,221.087 199.559 C 221.030 199.178,220.982 199.490,220.982 200.252 M221.930 211.693 L 221.064 212.720 222.044 211.784 C 222.582 211.269,222.972 210.807,222.909 210.757 C 222.847 210.707,222.406 211.129,221.930 211.693 M218.754 214.673 L 217.758 215.743 218.829 214.747 C 219.418 214.200,219.899 213.718,219.899 213.677 C 219.899 213.486,219.680 213.677,218.754 214.673 M215.727 217.443 L 214.987 218.262 215.806 217.522 C 216.256 217.115,216.625 216.747,216.625 216.704 C 216.625 216.509,216.417 216.680,215.727 217.443 " stroke="none" fill="#d9a2a1" fill-rule="evenodd"></path><path id="path6" d="M215.230 102.078 L 213.980 103.401 215.302 102.151 C 216.531 100.989,216.740 100.756,216.552 100.756 C 216.512 100.756,215.917 101.351,215.230 102.078 M221.602 130.657 C 221.916 130.717,222.369 130.715,222.610 130.652 C 222.851 130.589,222.594 130.539,222.040 130.542 C 221.486 130.545,221.289 130.596,221.602 130.657 M223.869 130.657 C 224.183 130.717,224.636 130.715,224.877 130.652 C 225.118 130.589,224.861 130.539,224.307 130.542 C 223.753 130.545,223.556 130.596,223.869 130.657 M127.168 159.005 C 125.653 160.818,125.358 161.209,125.508 161.209 C 125.578 161.209,126.277 160.416,127.061 159.446 C 127.844 158.476,128.437 157.683,128.379 157.683 C 128.321 157.683,127.775 158.278,127.168 159.005 M123.687 163.484 C 121.031 167.067,116.886 174.350,116.883 175.441 C 116.883 175.579,117.607 174.219,118.493 172.418 C 119.955 169.444,122.837 164.825,124.740 162.406 C 125.149 161.886,125.416 161.461,125.335 161.461 C 125.253 161.461,124.512 162.371,123.687 163.484 M162.909 167.185 C 163.360 167.241,164.096 167.241,164.547 167.185 C 164.997 167.129,164.628 167.083,163.728 167.083 C 162.827 167.083,162.459 167.129,162.909 167.185 M165.935 167.181 C 166.248 167.241,166.702 167.239,166.942 167.176 C 167.183 167.113,166.927 167.063,166.373 167.066 C 165.819 167.069,165.622 167.120,165.935 167.181 M155.536 168.073 C 155.186 168.796,155.185 168.835,155.529 168.403 C 155.744 168.134,155.919 167.830,155.919 167.728 C 155.919 167.625,156.174 167.492,156.486 167.432 L 157.053 167.323 156.493 167.289 C 156.092 167.264,155.819 167.488,155.536 168.073 M154.451 169.962 C 154.327 170.205,153.512 171.763,152.641 173.426 C 151.770 175.088,151.175 176.335,151.318 176.196 C 151.672 175.854,154.991 169.521,154.816 169.521 C 154.740 169.521,154.576 169.720,154.451 169.962 M149.748 178.841 C 149.397 179.534,149.167 180.101,149.236 180.101 C 149.305 180.101,149.649 179.534,150.000 178.841 C 150.351 178.149,150.582 177.582,150.512 177.582 C 150.443 177.582,150.099 178.149,149.748 178.841 M115.617 180.227 C 115.617 180.573,115.715 180.856,115.834 180.856 C 115.953 180.856,115.997 180.573,115.931 180.227 C 115.864 179.880,115.767 179.597,115.714 179.597 C 115.661 179.597,115.617 179.880,115.617 180.227 M154.026 183.636 C 152.366 185.304,150.384 187.087,149.622 187.600 C 144.048 191.352,136.861 199.776,135.420 204.245 C 134.811 206.134,133.954 207.325,132.224 208.684 C 130.537 210.009,130.356 210.448,130.580 212.663 C 130.769 214.536,130.733 214.599,128.977 215.524 C 127.537 216.282,126.434 217.585,126.468 218.488 C 126.482 218.851,126.531 218.899,126.625 218.640 C 127.211 217.020,127.599 216.560,128.955 215.875 C 130.983 214.852,131.059 214.716,130.851 212.493 L 130.674 210.608 132.804 208.516 C 134.433 206.916,135.039 206.127,135.380 205.164 C 137.276 199.804,144.392 191.156,149.370 188.162 C 149.945 187.815,151.946 186.023,153.816 184.179 C 156.810 181.226,157.267 180.865,157.638 181.156 C 158.017 181.452,158.025 181.441,157.715 181.045 C 157.214 180.406,157.310 180.339,154.026 183.636 M162.720 186.020 C 163.613 186.921,164.400 187.657,164.469 187.657 C 164.538 187.657,163.865 186.921,162.972 186.020 C 162.080 185.120,161.293 184.383,161.224 184.383 C 161.154 184.383,161.828 185.120,162.720 186.020 M168.892 191.940 C 169.433 192.494,169.932 192.947,170.001 192.947 C 170.071 192.947,169.685 192.494,169.144 191.940 C 168.602 191.385,168.103 190.932,168.034 190.932 C 167.965 190.932,168.351 191.385,168.892 191.940 M170.277 193.278 C 170.277 193.321,170.645 193.690,171.096 194.096 L 171.914 194.836 171.175 194.018 C 170.485 193.255,170.277 193.083,170.277 193.278 M220.993 197.103 C 220.994 198.212,221.038 198.634,221.092 198.041 C 221.145 197.449,221.144 196.542,221.090 196.026 C 221.036 195.510,220.992 195.995,220.993 197.103 M194.053 198.615 C 194.053 200.416,194.093 201.119,194.142 200.178 C 194.190 199.238,194.190 197.764,194.141 196.904 C 194.092 196.044,194.052 196.814,194.053 198.615 M179.093 204.541 C 178.331 205.313,176.196 207.356,174.349 209.081 C 169.353 213.745,164.789 218.776,164.426 220.017 C 164.066 221.248,161.182 224.203,157.803 226.804 C 155.028 228.940,154.906 229.047,155.530 228.809 C 156.094 228.595,156.023 228.649,159.149 226.057 C 162.130 223.586,164.134 221.520,164.500 220.540 C 164.658 220.118,164.917 219.490,165.076 219.144 C 165.381 218.481,175.564 208.138,178.910 205.093 C 179.987 204.113,180.780 203.272,180.673 203.224 C 180.566 203.176,179.855 203.769,179.093 204.541 M183.564 207.953 C 182.623 208.464,182.680 208.676,183.627 208.186 C 184.043 207.971,184.383 207.742,184.383 207.676 C 184.383 207.514,184.356 207.523,183.564 207.953 M182.053 208.836 C 181.664 209.063,181.618 209.482,181.667 212.418 L 181.722 215.743 181.801 212.491 C 181.867 209.771,181.951 209.184,182.313 208.909 C 182.828 208.518,182.674 208.475,182.053 208.836 M126.182 222.166 C 126.032 225.536,125.892 225.988,124.523 227.520 C 123.793 228.336,123.684 228.628,123.722 229.661 L 123.766 230.856 123.864 229.737 C 123.935 228.937,124.185 228.365,124.738 227.735 C 126.174 226.100,126.473 225.037,126.394 221.859 L 126.322 219.018 126.182 222.166 M181.976 228.338 C 181.975 232.494,182.010 234.229,182.052 232.194 C 182.095 230.160,182.095 226.759,182.052 224.638 C 182.010 222.516,181.976 224.181,181.976 228.338 M152.085 228.648 C 152.677 228.701,153.584 228.701,154.100 228.647 C 154.616 228.592,154.131 228.549,153.023 228.550 C 151.914 228.551,151.492 228.595,152.085 228.648 M146.952 229.191 C 144.439 229.911,143.228 230.776,141.827 232.851 C 141.141 233.868,140.262 234.937,139.874 235.226 C 139.486 235.516,139.282 235.752,139.421 235.752 C 139.874 235.752,141.021 234.576,141.902 233.207 C 143.585 230.591,145.065 229.742,149.244 228.996 C 150.493 228.774,150.495 228.772,149.496 228.761 C 148.942 228.756,147.797 228.949,146.952 229.191 M124.122 233.439 L 124.257 235.770 123.380 236.622 C 120.756 239.170,121.371 241.222,124.035 238.809 C 125.812 237.200,126.291 236.950,127.960 236.758 L 129.345 236.598 128.124 236.561 C 126.588 236.514,125.529 237.013,123.857 238.568 C 122.590 239.747,121.914 240.084,121.914 239.537 C 121.914 239.007,122.898 237.385,123.655 236.666 C 124.477 235.884,124.696 233.883,124.181 231.864 C 124.074 231.448,124.048 232.157,124.122 233.439 M138.476 235.915 C 138.396 235.995,137.782 236.212,137.112 236.396 C 136.442 236.580,136.132 236.741,136.423 236.753 C 136.714 236.766,137.338 236.647,137.809 236.490 C 138.713 236.187,139.337 235.768,138.883 235.768 C 138.740 235.768,138.557 235.834,138.476 235.915 M182.167 238.350 C 182.117 240.491,182.132 240.553,182.683 240.525 C 183.093 240.504,183.131 240.465,182.818 240.382 C 182.466 240.290,182.372 239.896,182.303 238.208 L 182.218 236.146 182.167 238.350 M131.171 236.962 C 132.037 237.012,133.454 237.012,134.320 236.962 C 135.186 236.913,134.477 236.873,132.746 236.873 C 131.014 236.873,130.305 236.913,131.171 236.962 M186.650 238.917 C 185.749 239.388,185.101 239.780,185.209 239.786 C 185.476 239.803,188.413 238.310,188.413 238.158 C 188.413 237.988,188.472 237.963,186.650 238.917 " stroke="none" fill="#f8e79c" fill-rule="evenodd"></path><path id="path7" d="M245.453 83.082 C 245.322 83.198,244.251 83.491,243.073 83.734 C 238.328 84.713,229.352 88.505,224.811 91.450 C 212.809 99.232,202.269 108.285,192.460 119.235 L 191.137 120.712 193.893 123.517 C 195.408 125.060,198.281 128.016,200.276 130.085 C 202.272 132.155,205.889 135.867,208.316 138.335 C 210.742 140.802,212.679 142.821,212.620 142.821 C 212.561 142.821,214.317 144.661,216.521 146.911 C 220.526 150.997,225.469 156.067,232.654 163.458 C 234.751 165.615,237.077 168.041,237.824 168.848 L 239.182 170.316 241.694 168.499 C 246.799 164.808,254.132 157.846,257.722 153.282 C 258.025 152.896,258.594 152.230,258.986 151.801 C 259.377 151.372,259.698 150.941,259.698 150.843 C 259.698 150.746,259.843 150.516,260.020 150.333 C 261.347 148.965,266.753 141.050,268.894 137.342 C 272.571 130.973,277.084 121.631,278.315 117.840 C 278.662 116.773,275.723 111.663,272.803 108.254 C 272.652 108.078,272.083 107.325,271.538 106.579 C 270.452 105.092,270.299 104.910,268.807 103.323 C 268.247 102.726,267.809 102.197,267.836 102.147 C 268.037 101.769,257.197 91.190,256.886 91.461 C 256.839 91.502,256.317 91.075,255.725 90.512 C 254.335 89.190,248.929 85.306,248.479 85.306 C 248.289 85.306,248.184 85.224,248.246 85.123 C 248.309 85.022,248.199 84.878,248.003 84.802 C 246.860 84.364,245.540 83.311,245.871 83.101 C 246.064 82.979,246.103 82.878,245.957 82.875 C 245.812 82.873,245.585 82.966,245.453 83.082 M251.876 89.578 C 252.573 90.324,252.339 92.499,251.611 92.049 C 251.487 91.973,251.385 92.026,251.385 92.169 C 251.385 92.311,251.244 92.384,251.071 92.331 C 250.897 92.277,250.440 92.164,250.054 92.079 C 248.825 91.810,248.587 90.338,249.598 89.253 C 250.240 88.564,251.033 88.677,251.876 89.578 M240.426 93.684 C 243.405 94.510,246.022 96.516,247.239 98.905 C 247.511 99.438,247.802 99.931,247.887 100.000 C 248.929 100.855,249.870 110.831,248.908 110.831 C 248.807 110.831,248.702 111.101,248.675 111.431 C 248.648 111.760,248.492 112.355,248.330 112.753 C 248.167 113.151,247.999 113.648,247.957 113.859 C 247.617 115.547,244.072 121.601,243.048 122.240 C 242.785 122.405,242.569 122.626,242.569 122.733 C 242.569 123.048,241.251 124.433,240.951 124.433 C 240.799 124.433,240.549 124.635,240.395 124.882 C 239.678 126.029,232.535 129.848,232.037 129.350 C 231.967 129.281,231.787 129.318,231.635 129.434 C 229.148 131.339,219.043 131.116,214.868 129.064 C 213.041 128.166,209.572 125.122,209.572 124.417 C 209.572 124.268,209.412 123.985,209.216 123.790 C 207.090 121.664,207.220 114.588,209.469 109.977 C 212.416 103.935,221.048 95.746,224.496 95.721 C 224.739 95.719,224.937 95.614,224.937 95.486 C 224.937 95.358,225.305 95.175,225.756 95.079 C 226.206 94.983,226.688 94.813,226.826 94.703 C 228.588 93.294,236.802 92.679,240.426 93.684 M264.698 101.432 C 264.868 101.614,264.949 101.763,264.878 101.763 C 264.806 101.763,264.851 102.034,264.977 102.366 C 265.567 103.916,263.062 105.020,262.028 103.666 C 260.740 101.981,263.249 99.881,264.698 101.432 M274.508 113.975 C 275.146 114.520,275.224 115.963,274.647 116.562 C 273.735 117.508,271.603 116.536,271.746 115.239 C 271.922 113.634,273.346 112.982,274.508 113.975 M204.534 126.746 C 204.534 126.841,204.747 126.986,205.007 127.068 C 205.629 127.266,205.659 129.199,205.046 129.638 C 203.256 130.921,201.225 128.724,202.724 127.128 C 203.200 126.622,204.534 126.340,204.534 126.746 M221.662 142.708 C 221.662 142.122,222.370 143.384,222.456 144.124 C 222.549 144.921,222.461 145.096,221.705 145.614 L 220.847 146.201 219.932 145.665 C 219.172 145.219,219.031 145.008,219.099 144.416 C 219.239 143.200,220.657 142.073,221.348 142.629 C 221.521 142.769,221.662 142.804,221.662 142.708 M236.103 158.271 C 236.196 158.178,236.277 158.206,236.283 158.333 C 236.289 158.460,236.387 159.043,236.500 159.628 C 236.614 160.219,236.609 160.632,236.489 160.558 C 236.370 160.484,236.272 160.531,236.272 160.661 C 236.272 161.088,234.993 161.761,234.551 161.566 C 234.320 161.464,234.038 161.402,233.923 161.427 C 233.809 161.453,233.775 161.378,233.847 161.261 C 233.919 161.144,233.761 160.892,233.496 160.701 C 232.393 159.907,234.244 157.332,235.381 158.078 C 235.686 158.277,236.010 158.364,236.103 158.271 " stroke="none" fill="#d0e2e0" fill-rule="evenodd"></path><path id="path8" d="M271.851 79.532 C 272.787 79.580,274.317 79.580,275.252 79.532 C 276.187 79.483,275.422 79.444,273.552 79.444 C 271.681 79.444,270.916 79.483,271.851 79.532 M284.224 88.161 C 284.224 89.616,284.266 90.211,284.317 89.484 C 284.368 88.756,284.368 87.566,284.317 86.839 C 284.266 86.111,284.224 86.707,284.224 88.161 M260.202 94.332 C 260.671 94.817,261.113 95.214,261.182 95.214 C 261.251 95.214,260.923 94.817,260.453 94.332 C 259.983 93.848,259.542 93.451,259.473 93.451 C 259.404 93.451,259.732 93.848,260.202 94.332 M194.584 124.433 C 195.825 125.680,196.898 126.700,196.967 126.700 C 197.036 126.700,196.077 125.680,194.836 124.433 C 193.595 123.186,192.523 122.166,192.454 122.166 C 192.385 122.166,193.343 123.186,194.584 124.433 M200.252 130.296 C 200.252 130.334,201.130 131.213,202.204 132.248 L 204.156 134.131 202.273 132.179 C 200.525 130.366,200.252 130.112,200.252 130.296 M209.950 140.302 C 211.330 141.688,212.516 142.821,212.585 142.821 C 212.654 142.821,211.582 141.688,210.202 140.302 C 208.821 138.917,207.635 137.783,207.566 137.783 C 207.497 137.783,208.569 138.917,209.950 140.302 M218.010 148.615 C 219.390 150.000,220.576 151.134,220.645 151.134 C 220.715 151.134,219.642 150.000,218.262 148.615 C 216.882 147.229,215.696 146.096,215.627 146.096 C 215.557 146.096,216.630 147.229,218.010 148.615 M226.322 157.179 C 227.703 158.564,228.889 159.698,228.958 159.698 C 229.027 159.698,227.954 158.564,226.574 157.179 C 225.194 155.793,224.008 154.660,223.939 154.660 C 223.870 154.660,224.942 155.793,226.322 157.179 M234.257 165.365 C 235.568 166.681,236.697 167.758,236.766 167.758 C 236.835 167.758,235.819 166.681,234.509 165.365 C 233.198 164.049,232.069 162.972,232.000 162.972 C 231.931 162.972,232.946 164.049,234.257 165.365 M163.476 173.379 C 163.476 173.422,163.844 173.790,164.295 174.197 L 165.113 174.937 164.374 174.118 C 163.684 173.355,163.476 173.184,163.476 173.379 " stroke="none" fill="#a4cbe3" fill-rule="evenodd"></path></g></svg>